<?xml version="1.0" encoding="UTF-8" standalone="no"?>
<!-- Created with Inkscape (http://www.inkscape.org/) -->

<svg
   width="10.874861mm"
   height="12.093183mm"
   viewBox="0 0 10.874861 12.093183"
   version="1.1"
   id="svg1"
   inkscape:version="1.4.2 (ebf0e94, 2025-05-08)"
   sodipodi:docname="THT_LDR.svg"
   xmlns:inkscape="http://www.inkscape.org/namespaces/inkscape"
   xmlns:sodipodi="http://sodipodi.sourceforge.net/DTD/sodipodi-0.dtd"
   xmlns="http://www.w3.org/2000/svg"
   xmlns:svg="http://www.w3.org/2000/svg">
  <sodipodi:namedview
     id="namedview1"
     pagecolor="#ffffff"
     bordercolor="#666666"
     borderopacity="1.0"
     inkscape:showpageshadow="2"
     inkscape:pageopacity="0.0"
     inkscape:pagecheckerboard="0"
     inkscape:deskcolor="#d1d1d1"
     inkscape:document-units="mm"
     inkscape:zoom="2.2623442"
     inkscape:cx="41.549822"
     inkscape:cy="68.955024"
     inkscape:window-width="1033"
     inkscape:window-height="991"
     inkscape:window-x="26"
     inkscape:window-y="23"
     inkscape:window-maximized="0"
     inkscape:current-layer="g1" />
  <defs
     id="defs1" />
  <g
     inkscape:label="Layer 1"
     inkscape:groupmode="layer"
     id="layer1"
     transform="translate(-29.081773,-80.257361)">
    <g
       id="g1"
       transform="matrix(0.25,0,0,0.25,35.431511,59.827822)">
      <g
         transform="matrix(-0.28194,0,0,-0.28194,185.39037,315.05322)"
         id="g85"
         style="display:inline">
        <g
           id="g83"
           transform="matrix(8.5030931,0,0,7.0089103,-4586.9033,-973.04494)"
           style="display:inline;opacity:1;fill:#000000">
          <circle
             r="3.3570344"
             cy="13.784806"
             cx="666.9267"
             id="circle83"
             style="color:#000000;clip-rule:nonzero;display:inline;overflow:visible;visibility:visible;opacity:1;isolation:auto;mix-blend-mode:normal;color-interpolation:sRGB;color-interpolation-filters:linearRGB;solid-color:#000000;solid-opacity:1;fill:#000000;fill-opacity:1;fill-rule:nonzero;stroke:none;stroke-width:0.0693594;stroke-linecap:butt;stroke-linejoin:miter;stroke-miterlimit:4;stroke-dasharray:0.138719, 0.138719;stroke-dashoffset:0;stroke-opacity:0.976471;color-rendering:auto;image-rendering:auto;shape-rendering:auto;text-rendering:auto;enable-background:accumulate"
             transform="matrix(0.92794302,0.37272208,0.37272208,-0.92794302,0,0)" />
        </g>
        <g
           style="display:inline;opacity:1;fill:#000000"
           transform="matrix(8.1958543,0,0,6.7556602,-4493.4111,-913.33192)"
           id="g84">
          <circle
             transform="matrix(0.92794302,0.37272208,0.37272208,-0.92794302,0,0)"
             style="color:#000000;clip-rule:nonzero;display:inline;overflow:visible;visibility:visible;opacity:1;isolation:auto;mix-blend-mode:normal;color-interpolation:sRGB;color-interpolation-filters:linearRGB;solid-color:#000000;solid-opacity:1;fill:#000000;fill-opacity:1;fill-rule:nonzero;stroke:none;stroke-width:0.0693594;stroke-linecap:butt;stroke-linejoin:miter;stroke-miterlimit:4;stroke-dasharray:0.138719, 0.138719;stroke-dashoffset:0;stroke-opacity:0.976471;color-rendering:auto;image-rendering:auto;shape-rendering:auto;text-rendering:auto;enable-background:accumulate"
             id="circle84"
             cx="666.9267"
             cy="13.784806"
             r="3.3570344" />
        </g>
      </g>
      <path
         style="display:inline;fill:none;stroke:#8c8c8c;stroke-width:3.52425;stroke-linecap:butt;stroke-linejoin:miter;stroke-dasharray:none;stroke-opacity:1"
         d="m -18.565967,122.43055 c 0,0 6.528151,0.87608 9.004073,-0.45596 3.9440775,-2.12192 -0.916455,-18.31552 2.8351511,-26.890658"
         id="path85"
         sodipodi:nodetypes="csc" />
      <path
         style="display:inline;fill:none;stroke:#8c8c8c;stroke-width:3.52425;stroke-linecap:butt;stroke-linejoin:miter;stroke-dasharray:none;stroke-opacity:1"
         d="M 14.562058,123.44965 C 13.978668,122.91486 9.0423492,122.39508 7.7756868,121.93574 3.9302131,120.54123 0.99901453,109.63111 -2.7815753,99.805656"
         id="path86"
         sodipodi:nodetypes="csc" />
      <path
         id="path89"
         style="display:inline;fill:#ffe680;stroke:#ffcc00;stroke-width:3.15072;paint-order:stroke markers fill"
         d="m 8.3359955,93.545332 c 0.6006826,8.544818 -13.0147263,11.700768 -23.3903815,7.588158 -2.98988,-1.185108 -4.522618,-4.79432 -3.441322,-7.588158 1.961626,-5.068473 0.999947,-7.061097 11.6940442,-7.817647 11.5429619,-0.816603 14.8293673,3.432056 15.1376593,7.817647 z"
         sodipodi:nodetypes="sssss" />
      <path
         id="path87"
         style="display:inline;fill:#ffe680;stroke:#ffcc00;stroke-width:3.15072;paint-order:stroke markers fill"
         d="m 8.3359955,91.214001 c 0.6006826,8.544815 -13.0147263,11.700769 -23.3903815,7.588155 -2.98988,-1.185106 -4.522618,-4.794318 -3.441322,-7.588155 1.961626,-5.068473 0.999947,-7.061097 11.6940442,-7.817648 11.5429619,-0.816603 14.8293673,3.432056 15.1376593,7.817648 z"
         sodipodi:nodetypes="sssss" />
      <path
         style="display:inline;fill:none;stroke:#504416;stroke-width:0.946164px;stroke-linecap:butt;stroke-linejoin:miter;stroke-opacity:1"
         d="m -15.114345,96.143052 c 0.0038,-0.694271 0.03308,-1.380976 -0.156496,-2.06865 -0.05891,-0.213583 -0.232318,-0.399197 -0.313028,-0.608426 -0.07643,-0.198099 -0.09887,-0.406528 -0.156571,-0.608419 -0.04669,-0.163262 -0.0974,-0.325942 -0.156495,-0.486749 -0.0453,-0.123332 -0.124167,-0.239273 -0.156534,-0.365056 -0.0512,-0.198865 0.04289,-0.408377 0,-0.60843 -0.02707,-0.12652 -0.104317,-0.243363 -0.156533,-0.365052 -0.05218,-0.202805 -0.118903,-0.403682 -0.156533,-0.608423 -0.01466,-0.08033 0,-0.162251 0,-0.243371 0,-0.162251 0,-0.324494 0,-0.486745 0,-0.283928 0,-0.567861 0,-0.851793 0,-0.04055 -0.02331,-0.08541 0,-0.121682 0.03308,-0.05131 0.123528,-0.07041 0.156533,-0.121692 0.02331,-0.03628 0,-0.08109 0,-0.121686 0.05214,-0.08109 0.09184,-0.167904 0.156533,-0.24337 0.04289,-0.04997 0.40528,-0.331727 0.4696,-0.365056 0.09706,-0.05031 0.212996,-0.075 0.313028,-0.121682 0.161308,-0.07525 0.308255,-0.16813 0.469562,-0.243374 0.100032,-0.04663 0.208748,-0.08109 0.313066,-0.121682 0.104318,-0.04054 0.199877,-0.143691 0.313029,-0.121689 0.143188,0.02786 0.186531,0.184348 0.313066,0.243371 0.141496,0.06599 0.332313,0.05056 0.469599,0.121685 0.04346,0.02252 -0.02331,0.08541 0,0.121689 0.06597,0.102611 0.247055,0.140756 0.313029,0.243363 0.12567,0.195381 0.224236,0.401212 0.313066,0.608431 0.207132,0.483106 0.156495,0.475734 0.156495,0.973486 0,0.486745 0,0.973478 0,1.46022 0,0.16225 0.02594,0.325746 0,0.486745 -0.03936,0.244825 -0.117136,0.485286 -0.156495,0.730111 -0.01278,0.0805 0,0.162244 0,0.243371 0,0.162247 0,0.324498 0,0.486741 0,0.08109 -0.02068,0.163819 0,0.243371 0.03233,0.125783 0.133188,0.238077 0.156495,0.36506 0.0297,0.160615 -0.03421,0.326693 0,0.486733 0.01917,0.08946 0.128264,0.155387 0.156571,0.243375 0.02519,0.07867 -0.02068,0.163822 0,0.24337 0.06447,0.250611 0.173901,0.392096 0.313029,0.608423 0.397197,0.617558 0.183637,0.335817 0.626132,0.851801 0.104318,0.121681 0.208673,0.243374 0.313029,0.365056 0.104393,0.121685 0.162585,0.277308 0.313066,0.365056 0.08349,0.04872 0.210741,-0.01594 0.313028,0 0.161834,0.02511 0.309571,0.09057 0.4696,0.121681 0.05067,0.0098 0.10428,0 0.1565328,0 0.1565331,0 0.3130286,0 0.4695616,0 0.1043178,0 0.2197253,0.03628 0.3130662,0 0.3156976,-0.122708 0.7300743,-0.745919 0.939161,-0.973475 0.1516085,-0.16504 0.3692286,-0.299533 0.4695992,-0.486748 0.3763335,-0.702136 0.3130286,-0.922816 0.3130286,-1.581902 0,-0.162251 0.045298,-0.328366 0,-0.486749 -0.060937,-0.213229 -0.2241987,-0.4012 -0.3130286,-0.608426 -0.068041,-0.158657 -0.097476,-0.32593 -0.1565331,-0.486738 -0.045298,-0.123331 -0.1241663,-0.239276 -0.1565706,-0.365056 -0.020676,-0.07959 0.015037,-0.163059 0,-0.24337 -0.037742,-0.204752 -0.1299932,-0.402633 -0.1564955,-0.60843 -0.041539,-0.322886 0.051727,-0.651492 0,-0.973475 -0.032705,-0.205234 -0.1235274,-0.403208 -0.1564955,-0.608431 -0.019548,-0.120749 0,-0.243374 0,-0.365056 0,-0.121689 -0.025939,-0.245032 0,-0.365052 0.027066,-0.126531 0.11646,-0.240622 0.1564955,-0.365059 0.012781,-0.03937 -0.012781,-0.08234 0,-0.121689 0.040035,-0.124434 0.1165352,-0.240619 0.1564955,-0.365056 0.02669,-0.08284 -0.04278,-0.298507 0,-0.365056 0.033081,-0.05131 0.1235273,-0.07041 0.1565706,-0.121682 0.023307,-0.03628 -0.03684,-0.09301 0,-0.121689 0.03684,-0.02868 0.1098439,0.01812 0.1565331,0 0.1319479,-0.0513 0.1810431,-0.192061 0.3130286,-0.243367 0.046689,-0.01812 0.1043178,0 0.1565331,0 0.4891471,0 -0.053681,-0.02086 0.9391609,0.365056 0.1475862,0.0574 0.3163743,0.07408 0.4695993,0.121682 0.1083025,0.03372 0.2023577,0.093 0.3130286,0.121685 0.049471,0.01286 0.1069868,-0.01286 0.1565331,0 0.1852533,0.04805 0.6933092,0.295639 0.7826278,0.365052 0.082514,0.06415 0.091875,0.167909 0.1565331,0.243375 0.040863,0.04772 0.1155954,0.07391 0.1565331,0.121689 0.1878096,0.219029 0.572075,0.927203 0.6260948,1.095167 0.038118,0.118054 -0.038118,0.247002 0,0.365056 0.018044,0.05564 0.1331884,0.06724 0.156533,0.121682 0.033081,0.077 0,0.162251 0,0.243374 0,0.08109 0,0.162244 0,0.243371 0,0.159232 0.028946,0.329513 0,0.486741 -0.044847,0.24425 -0.1171742,0.485286 -0.156533,0.730112 -0.012781,0.0805 0.017292,0.163348 0,0.24337 -0.035337,0.164965 -0.1211967,0.321777 -0.1565331,0.486738 -0.025938,0.120031 0.038118,0.247009 0,0.365056 -0.040035,0.124444 -0.1241664,0.239284 -0.1565331,0.365056 -0.020676,0.07959 0,0.162251 0,0.24337 0,0.36506 0,0.730112 0,1.095168 0,0.08117 0,0.162255 0,0.243374 0,0.121682 -0.043043,0.248051 0,0.365056 0.04917,0.133621 0.4642612,0.72597 0.6260947,0.851801 0.03684,0.02872 0.1098815,-0.01812 0.1565707,0 0.1682242,0.06541 0.3130286,0.162244 0.4695617,0.243363 0.2205147,0.11431 1.1011449,0.606322 1.4087226,0.486749 0.1320231,-0.05131 0.224537,-0.151593 0.3130662,-0.243374 0.74759208,-0.774892 0.61282476,-0.65171 0.93916091,-1.581913 0.05657596,-0.161341 0.12608357,-0.321175 0.15653309,-0.486737 0.02217928,-0.120464 -0.03082544,-0.245736 0,-0.365056 0.02293112,-0.08894 0.13363956,-0.154432 0.15649549,-0.243371 0.0308254,-0.119324 0,-0.243374 0,-0.36506 0,-0.24337 0,-0.486733 0,-0.730108 0,-0.68955 0,-1.3791 0,-2.068654 0,-0.365052 0,-0.730108 0,-1.095164 0,-0.121692 0,-0.243374 0,-0.365056 0,-0.08117 0.0251866,-0.164671 0,-0.24337 -0.028194,-0.08799 -0.12822631,-0.155379 -0.15649549,-0.243374 -0.02556256,-0.07867 0,-0.162244 0,-0.243367 0,-0.121689 0,-0.243371 0,-0.365064 0,-0.283921 0,-0.567857 0,-0.851793 0,-0.219489 -0.06995872,-0.432319 0.15649549,-0.608427 0.0368402,-0.02868 0.10593426,0.0098 0.15657068,0 0.16002915,-0.03113 0.31302859,-0.08109 0.46956167,-0.121681 0.15653306,-0.04054 0.30949496,-0.09057 0.46959926,-0.121693 0.085597,-0.01658 0.4541866,-0.01195 0.4695241,0 0.1330381,0.103416 0.2087484,0.243374 0.3130662,0.365063 0.1043178,0.121686 0.2289352,0.234247 0.3130661,0.365056 0.1256701,0.195373 0.1873962,0.41305 0.3130286,0.608423 0.3581766,0.556907 -0.064884,-0.516364 0.3130662,0.365052 0.016541,0.03846 -0.023307,0.08541 0,0.121693 0.033081,0.05131 0.1386393,0.06607 0.1565331,0.121682 0.038118,0.118054 -0.019548,0.244314 0,0.365056 0.032705,0.205229 0.1235273,0.403196 0.1565707,0.608426 0.019548,0.120749 -0.038118,0.247006 0,0.36506 0.018044,0.05564 0.1331508,0.06724 0.1564955,0.121681 0.031577,0.07374 0,0.96619 0,0.973483 0,0.851801 0,1.703594 0,2.555395 0,0.283932 0,0.567861 0,0.851793 0,0.121693 0,0.243375 0,0.365056 0,0.04055 -0.023307,0.08541 0,0.121689 0.032705,0.05131 0.1235273,0.07041 0.1564955,0.121685 0.023307,0.03628 -0.016541,0.08317 0,0.121682 0.073831,0.172096 0.2564902,0.310762 0.3131037,0.486745 0.025187,0.07867 0,0.162247 0,0.243374"
         id="path88" />
    </g>
  </g>
</svg>
