<?xml version="1.0" encoding="UTF-8"?>
<svg id="Layer_2" data-name="Layer 2" xmlns="http://www.w3.org/2000/svg" viewBox="0 0 239.92 317.67">
  <defs>
    <style>
      .cls-1 {
        fill: #fff;
      }

      .cls-2 {
        fill: #2e3192;
      }
    </style>
  </defs>
  <g id="Layer_1-2" data-name="Layer 1">
    <g>
      <path class="cls-1" d="M77.27,68.85c-10.93.65-24.91,2.47-34.05,8.81-13.56,9.42-14.43,23.75-15.08,39.1,17.25,5.91,35.16,10.59,53.29,12.99,27.57,3.65,54.98,2.06,82.03-4.35,12.34-2.92,22.88-7.57,34.77-11.58-1.77-29.12-23.96-44.53-50.67-49.48-2.49-.46-8.95-2.37-10.01.54,18.59,4.95,40.09,20.14,46.09,39.23,1.07,3.41,3.74,10.31-2.68,8.84-.81-.19-3.39-10.58-4.38-12.75-9.6-21.23-46.19-38.26-68.9-32.31,1.1-16.47,3.91-34.57,10.78-49.67,3.34-7.33,4.48-10.63,8.63-11.83h0c-7.81-4.99-9.45-1.48-9.45-1.48-10.4,19.62-14.89,40.92-16.37,63.05-1.32,1.9-20.02.66-24.01.89Z"/>
      <path class="cls-2" d="M238.6,162.94c-2.8-4.44-8.89-8.96-14.4-8.05-1.15-4.12,1.89-5.47,2.93-8.56,3.06-9.06,2.65-35.61,2.04-45.93-3.09-52.27-40.39-92.05-93.12-94.5-4.14-.19-6.92-.1-8.96.49-4.15,1.2-5.29,4.49-8.63,11.83-6.87,15.1-9.68,33.2-10.78,49.67,22.71-5.95,59.3,11.08,68.9,32.31.98,2.17,3.56,12.57,4.38,12.75,6.42,1.47,3.75-5.43,2.68-8.84-6-19.1-27.5-34.28-46.09-39.23,1.06-2.91,7.52-1,10.01-.54,26.71,4.95,48.9,20.36,50.67,49.48-11.89,4.01-22.43,8.66-34.77,11.58-27.05,6.4-54.46,8-82.03,4.35-18.13-2.4-36.04-7.07-53.29-12.99.65-15.34,1.51-29.68,15.08-39.1,9.13-6.34,23.11-8.16,34.05-8.81,3.99-.24,22.69,1.01,24.01-.89,1.48-22.13,5.97-43.43,16.37-63.05C88.91-5.83,50.67.64,34.24,28.4l3.2,2.48c7.97-13.89,26.13-24.32,41.87-25.99,5.5-.59,11.82.43,17.43,0,.24,1.5-1.86,1.25-2.97,1.5-11.32,2.61-16.78,2.35-27.57,8.33C33.43,32.85,12.83,73.18,9.49,109.58c-.11,1.15.72,2.57.43,3.62-.47,1.71-5.82,4.44-7.63,7.37-5.72,9.22.86,14.6,2.58,23.06,2.68,13.21,1.82,38.01,11.72,48.23,1.68,1.73,3.95,1.86,4.47,2.74,1.44,2.41,4.99,27.86,6.26,33.48,4.48,19.85,9.97,30.57,22.2,46.71,31.67,41.81,51.78,56.64,101.65,28.27,24.56-13.97,52.04-38.98,54.28-68.99,25.74-1.76,18.93-16.73,23.19-34.22,2.3-9.42,15.42-28.25,9.94-36.92ZM220.43,148.61c-1.26,3.08-.66,7.33-2.94,11.01-.65,1.04.04,1.75-2.24,1.27l.99-17h7.97c.42,2.87-2.87,2.53-3.77,4.72ZM225.2,130.89l-.43,9.07c-11.14,5.65-7.94-11.02.43-9.07ZM126.23,134.01c21.62-2.37,36.75-4.3,57.69-11.08,8.75-2.83,22.77-12.64,30.89-3.11,6.4,7.5-1.21,16.19-2.29,23.83-.66,4.68,1.33,11.45-2.24,14.24-.78-7.43-9.59-16.65-16.23-19.22-1.21-.47-10.43-2.78-11.17-2.78h-61.25c-.08-1.49,3.56-1.77,4.6-1.88ZM8.1,155.89c3.34-10.85-9.93-27.02-2.02-35.52,3.57-3.83,8.25-3.79,13.02-3.03,11.95,1.9,27.64,9.27,40.74,12.08,8.61,1.85,18.68,3.45,27.43,4.45,3.76.43,9.93-1.41,12.44,2.01H34.49c-7.79.98-16.54,6.37-21.39,12.53-1.99,2.52-2.64,5.62-4.99,7.47ZM184.77,271.8c-11.05,13.64-43.57,33.38-60.48,39.27-40.42,14.08-77.27-41.86-89.05-73.93-3.5-9.53-8.57-25.84-9.23-35.75-.25-3.8,5.62.95,7.43,1.56,2.93.98,12.58,3.95,14.99,3.95h24.4l-5.98,26.5v36.5l4.84-1.64.15-11.36c8.74,3.19,18.11,12.69,26.63,14.75,14.91,3.61,30.06-1.16,43.11-8.21,1.87-1.01,5.81-4.87,7.41-4.54,2.63.55.71,7.14,1.99,9.03,1.15,1.71,3.72,1.35,4.34-.69,1.12-3.65-1.01-13.47-2.35-17.32-3.67-10.57-14.28-18.57-16.17-29.76-1.37-8.07.7-18.96-8.7-23.3-6.06,1.95,1.42,6.64,2.26,10.76.55,2.72.14,5.53.22,8.27-2.11-1.08-1.47-3.73-4.03-5.43-8.07-5.34-26.24,8.44-16.61,13.67,6.01,3.26,15.79,1.71,21.15-2.21,2.32,3.53,3.52,7.63,5.67,11.29,1.63,2.76,11.16,14.83,9.76,16.69-6.61-4.83-18.85-11.28-27.14-9.77-3.5.64-7,4.02-11.17,3.85-3.34-.14-4.9-2.59-7.66-3.41-11.25-3.32-27.67,11.51-28.71,10.32-.3-9.39.58-18.81,2.47-28.01l8.08,2.93c4.4.48,17.59.65,19.17-4.61,2.77-9.22-23.5-19.68-21.75-3.29-3.02,1.1-2.25-4.82-2.01-6.53,1.14-8.26,10.75-11.99,15.4-18.54,5.24-7.38,5.58-21.42,17.08-21.88,9.04-.36,10.85,10.6,14.19,16.61,12.74,22.92,43.42,25.01,65.12,14.05,1.61-.81,10.19-7.32,10.73-6.71,2.82,27.11,2.34,54.84-15.53,76.9ZM85.77,258.4l53.78-1.49c.56,2.39-.43,1.62-1.3,2.23-10.4,7.26-27.27,9.93-39.58,7.32-5.22-1.11-8.14-5.93-12.9-8.06ZM204.48,184.59c-14.7,23.49-62.03,28.65-76.72,2.65-4.07-7.2-5.68-19.06-16.58-19.43-14.59-.5-14.45,13.42-20.59,22.42-12.3,18.01-38.24,16.58-56.58,9.15-29.69-12.03-34.13-57.34,6.47-60.47,46.83-3.61,97.22,3.26,144.38,1,5.23.53,12.34,3.64,16.09,7.34,9.39,9.29,10.44,26.3,3.54,37.34ZM224.49,195.68c-1.06,3.56-1.72,8.91-2.26,12.73-1.14,8.07,2.09,16.04-8.74,19.22-1.32.39-7.03,1.62-7.17-.22-.02-.26.96-1.72.97-2.99.06-8.34-3.46-30.75.97-36.04.89-1.07,1.44-2.06,2.51-.5.86,2.94,2.34,6.52,2.5,9.55.26,4.82-3.47,10.41,3.95,10.46,1.22-4.17,1.42-9.04.9-13.39-.64-5.33-3.81-8.7-4.48-13.67,3.32-4.81,8.69-7.2,14.59-6.35l1.01-3.99c-3.5-2.83-8.14-1.48-11.71.2-2.04.96-2.9,3.36-5.27,3.2-1.8-7.68,9.33-15.36,16.21-13.79,15.79,3.61-1.64,27.72-3.99,35.57Z"/>
      <path class="cls-1" d="M189.56,201.61c-21.7,10.97-52.37,8.87-65.12-14.05-3.34-6.01-5.15-16.97-14.19-16.61-11.49.46-11.84,14.5-17.08,21.88-4.65,6.55-14.25,10.28-15.4,18.54-.24,1.71-1.01,7.63,2.01,6.53-1.75-16.39,24.52-5.93,21.75,3.29-1.58,5.26-14.77,5.09-19.17,4.61l-8.08-2.93c-1.89,9.21-2.76,18.63-2.47,28.01,1.04,1.19,17.46-13.64,28.71-10.32,2.76.82,4.32,3.27,7.66,3.41,4.18.17,7.67-3.21,11.17-3.85,8.28-1.51,20.53,4.94,27.14,9.77,1.4-1.87-8.13-13.93-9.76-16.69-2.15-3.65-3.35-7.76-5.67-11.29-5.36,3.92-15.13,5.48-21.15,2.21-9.64-5.23,8.53-19.01,16.61-13.67,2.56,1.7,1.92,4.35,4.03,5.43-.08-2.73.33-5.54-.22-8.27-.83-4.12-8.32-8.81-2.26-10.76,9.4,4.34,7.33,15.23,8.7,23.3,1.89,11.19,12.5,19.19,16.17,29.76,1.33,3.84,3.46,13.67,2.35,17.32-.62,2.04-3.19,2.4-4.34.69-1.27-1.89.65-8.48-1.99-9.03-1.6-.33-5.55,3.53-7.41,4.54-13.05,7.05-28.2,11.82-43.11,8.21-8.52-2.06-17.89-11.56-26.63-14.75l-.15,11.36-4.84,1.64v-36.5l5.98-26.5h-24.4c-2.41,0-12.06-2.96-14.99-3.95-1.81-.61-7.68-5.36-7.43-1.56.66,9.92,5.73,26.22,9.23,35.75,11.78,32.07,48.63,88,89.05,73.93,16.92-5.89,49.43-25.63,60.48-39.27,17.87-22.05,18.34-49.78,15.53-76.9-.55-.61-9.13,5.9-10.73,6.71ZM121.63,281.88c-1.33,1.9-7.63-.75-9.57-.88-5.74-.38-10.7.26-16.32.9l-.06-4.38c.72-2.73,20.94-1.84,24.37.47,1.29.87,2.37,2.77,1.58,3.9Z"/>
      <path class="cls-1" d="M200.94,147.25c-3.75-3.71-10.86-6.81-16.09-7.34-47.17,2.27-97.55-4.61-144.38-1-40.6,3.13-36.16,48.44-6.47,60.47,18.34,7.43,44.28,8.86,56.58-9.15,6.14-8.99,6-22.92,20.59-22.42,10.9.37,12.51,12.23,16.58,19.43,14.69,26,62.03,20.84,76.72-2.65,6.91-11.04,5.85-28.05-3.54-37.34ZM199.28,184.37c-12.55,16.25-49.43,22.65-64.36,7.17-9.52-9.87-6.65-28.53-25.61-27.59-18.27.91-13.68,19.41-25.51,29.47-9.87,8.4-29.2,9.14-41.08,5.2-2.03-.67-5.57-2.94-2.23-3.71,2.16-.5,9.63,1.86,12.87,2.03,9.15.48,16.93.63,25.1-3.88,1.55-.85,4.88-1.88,4.31-4.15-22.35,6.1-48.8-1.64-64.23-19-2.08,2.8,6.82,11.3,0,11.02-8.88-12.64-2.34-35.09,13.92-37.05,14.87-1.79,48.21-2.75,62.79-1,5.52.66,9.87,7.17,14.93,7.1,3.6-.05,8.82-6.34,15.93-7.06,10.94-1.11,50.53-1.61,60.3.43,18.25,3.8,23.89,26.75,12.86,41.03Z"/>
      <path class="cls-1" d="M194.05,138.68c6.63,2.57,15.44,11.79,16.23,19.22,3.57-2.78,1.58-9.56,2.24-14.24,1.08-7.63,8.69-16.32,2.29-23.83-8.12-9.53-22.15.28-30.89,3.11-20.94,6.78-36.07,8.71-57.69,11.08-1.04.11-4.68.4-4.6,1.88h61.25c.74,0,9.96,2.31,11.17,2.78Z"/>
      <path class="cls-1" d="M34.49,135.9h65.23c-2.51-3.42-8.68-1.58-12.44-2.01-8.75-1-18.82-2.61-27.43-4.45-13.1-2.81-28.79-10.18-40.74-12.08-4.77-.76-9.46-.81-13.02,3.03-7.9,8.5,5.37,24.67,2.02,35.52,2.36-1.85,3.01-4.95,4.99-7.47,4.85-6.15,13.6-11.54,21.39-12.53Z"/>
      <path class="cls-1" d="M228.47,160.1c-6.88-1.57-18.01,6.1-16.21,13.79,2.38.16,3.23-2.24,5.27-3.2,3.57-1.68,8.21-3.03,11.71-.2l-1.01,3.99c-5.89-.85-11.27,1.55-14.59,6.35.67,4.98,3.84,8.35,4.48,13.67.52,4.35.33,9.21-.9,13.39-7.42-.05-3.69-5.64-3.95-10.46-.16-3.02-1.64-6.61-2.5-9.55-1.06-1.56-1.61-.57-2.51.5-4.42,5.29-.91,27.7-.97,36.04,0,1.27-.99,2.73-.97,2.99.14,1.83,5.85.6,7.17.22,10.83-3.18,7.6-11.15,8.74-19.22.54-3.82,1.19-9.18,2.26-12.73,2.35-7.86,19.78-31.97,3.99-35.57Z"/>
      <path class="cls-1" d="M138.25,259.13c.87-.61,1.86.17,1.3-2.23l-53.78,1.49c4.76,2.12,7.68,6.95,12.9,8.06,12.31,2.61,29.19-.07,39.58-7.32Z"/>
      <path class="cls-1" d="M216.23,143.89l-.99,17c2.28.48,1.6-.23,2.24-1.27,2.28-3.68,1.68-7.94,2.94-11.01.9-2.19,4.18-1.85,3.77-4.71h-7.97Z"/>
      <path class="cls-1" d="M224.77,139.96l.43-9.07c-8.38-1.95-11.58,14.72-.43,9.07Z"/>
      <path class="cls-2" d="M120.04,277.99c-3.42-2.31-23.65-3.2-24.37-.47l.06,4.38c5.63-.64,10.58-1.28,16.32-.9,1.94.13,8.24,2.78,9.57.88.79-1.13-.3-3.03-1.58-3.9Z"/>
      <path class="cls-2" d="M186.42,143.34c-9.77-2.04-49.35-1.54-60.3-.43-7.11.72-12.33,7.01-15.93,7.06-5.06.07-9.41-6.44-14.93-7.1-14.58-1.75-47.92-.79-62.79,1-16.26,1.96-22.8,24.41-13.92,37.05,6.82.29-2.09-8.22,0-11.02,15.44,17.35,41.88,25.1,64.23,19,.56,2.28-2.77,3.3-4.31,4.15-8.17,4.51-15.94,4.37-25.1,3.88-3.25-.17-10.71-2.53-12.87-2.03-3.34.78.2,3.04,2.23,3.71,11.88,3.94,31.2,3.2,41.08-5.2,11.82-10.05,7.23-28.56,25.51-29.47,18.97-.94,16.1,17.72,25.61,27.59,14.93,15.47,51.81,9.08,64.36-7.17,11.02-14.28,5.39-37.23-12.86-41.03ZM88.25,181.88c-18.66,12.45-44.99,3.63-62.01-8.2l.79-24.79c6.93,6.7,10.71.4,16.9-1.52,14.28-4.42,23.96-.4,36.2,5.78,1.25.63,2.83-.04,3.67.36,6.95,3.27,6.72,21.94,4.45,28.37ZM132.13,180.85c-4.39-6.33-3.34-11.27,3.95-13.93,1.93,2.77.68,4.44,3.43,7.53,7.3,8.22,18.23.47,15.99-9.56,4.16-1.68,18.97,7.92,20.91,6,1.58-5.47-10.59-9.4-14.93-10.5-13.03-3.3-24.47-1.14-35.37,6.52-7.3-5.4-15.5-7.68-24.36-4.49-2.69.97-4.33,3.08-6.99,3.47,2.04-6.71-7.28-14.75-7.99-18.48-.38-2.02.28-1.33,1.49-1.51,10.87-1.65,15.59,8.33,21.86,7.98,2.98-.16,5.83-3.65,7.23-3.87,1.6-.25,2.49,2.21,4,2.69,4.46,1.42,7.08-2.19,10.99-3.58,10.09-3.57,20.3-5.11,30.67-1.28,3.7,1.37,6.09,4.91,10.89,4.07,3.86-.67,2.9-5.29,3.62-5.92,4-3.47,26.53,6.3,22.03,19.62-6.22,18.42-56.28,31.24-67.41,15.22ZM186.66,190.7c-9.41,5.19-28.87,8.18-39.11,4.67-3.19-1.09-5.77-3.5-8.98-4.48-.23-1.78,2.24-.97,3.35-.87,17.71,1.67,30.84,1,46.76-8.29l12.61-10.82c-1.02,9.3-6.81,15.49-14.63,19.8Z"/>
      <path class="cls-1" d="M199.54,165.63c4.5-13.32-18.03-23.09-22.03-19.62-.73.63.24,5.24-3.62,5.92-4.8.84-7.19-2.71-10.89-4.07-10.38-3.83-20.58-2.3-30.67,1.28-3.91,1.39-6.52,4.99-10.99,3.58-1.51-.48-2.4-2.94-4-2.69-1.41.22-4.25,3.7-7.23,3.87-6.26.34-10.99-9.63-21.86-7.98-1.21.18-1.87-.51-1.49,1.51.71,3.73,10.03,11.77,7.99,18.48,2.67-.39,4.31-2.5,6.99-3.47,8.86-3.19,17.05-.91,24.36,4.49,10.9-7.66,22.34-9.81,35.37-6.52,4.34,1.1,16.51,5.02,14.93,10.5-1.93,1.93-16.74-7.67-20.91-6,2.25,10.03-8.68,17.78-15.99,9.56-2.75-3.09-1.5-4.77-3.43-7.53-7.29,2.66-8.34,7.61-3.95,13.93,11.13,16.02,61.19,3.2,67.41-15.22Z"/>
      <path class="cls-1" d="M83.81,153.51c-.84-.4-2.42.28-3.67-.36-12.24-6.18-21.92-10.19-36.2-5.78-6.19,1.92-9.98,8.22-16.9,1.52l-.79,24.79c17.02,11.83,43.35,20.65,62.01,8.2,2.27-6.43,2.51-25.1-4.45-28.37ZM82.3,172.66l-9.46-5.76c-1.22,15.61-21.14,14.23-18.94-2-4.21-1.66-18.97,7.93-20.91,6-1.31-4.73,5.21-7.05,8.98-8.47,12.09-4.57,29.04-5.63,39.29,3.51,2.82,2.51,5.36,4.08,1.04,6.74Z"/>
      <path class="cls-1" d="M188.68,181.72c-15.92,9.29-29.05,9.96-46.76,8.29-1.11-.1-3.58-.92-3.35.87,3.22.98,5.79,3.39,8.98,4.48,10.24,3.51,29.7.52,39.11-4.67,7.82-4.31,13.61-10.5,14.63-19.8l-12.61,10.82Z"/>
      <path class="cls-2" d="M81.27,165.92c-10.25-9.14-27.2-8.08-39.29-3.51-3.77,1.42-10.29,3.75-8.98,8.47,1.93,1.93,16.7-7.66,20.91-6-2.2,16.23,17.72,17.61,18.94,2l9.46,5.76c4.32-2.66,1.78-4.23-1.04-6.74Z"/>
    </g>
  </g>
</svg>
